<?xml version="1.0" encoding="utf-8"?>
<!-- Generator: Adobe Illustrator 15.0.0, SVG Export Plug-In . SVG Version: 6.00 Build 0)  -->
<!DOCTYPE svg PUBLIC "-//W3C//DTD SVG 1.1//EN" "http://www.w3.org/Graphics/SVG/1.1/DTD/svg11.dtd">
<svg version="1.1" id="Layer_1" xmlns="http://www.w3.org/2000/svg" xmlns:xlink="http://www.w3.org/1999/xlink" x="0px" y="0px"
	 width="18px" height="18px" viewBox="387.001 297 18 18" enable-background="new 387.001 297 18 18" xml:space="preserve">
<path fill="#F7C839" d="M396.001,297c-4.97,0-9,4.031-9,9c0,4.972,4.03,9,9,9c4.971,0,9-4.028,9-9
	C405.001,301.031,400.972,297,396.001,297z M396.001,300.992c0.842,0,1.524,0.683,1.524,1.524s-0.683,1.524-1.524,1.524
	s-1.524-0.682-1.524-1.524S395.159,300.992,396.001,300.992z M398.033,310.21c0,0.24-0.194,0.436-0.436,0.436h-3.193
	c-0.24,0-0.436-0.195-0.436-0.436v-0.871c0-0.24,0.195-0.436,0.436-0.436h0.436v-2.322h-0.436c-0.24,0-0.436-0.195-0.436-0.436
	v-0.871c0-0.241,0.195-0.436,0.436-0.436h2.322c0.241,0,0.436,0.195,0.436,0.436v3.629h0.436c0.241,0,0.436,0.195,0.436,0.436
	V310.21z"/>
</svg>
