%TF.GenerationSoftware,KiCad,Pcbnew,(6.0.8)*%
%TF.CreationDate,2023-10-25T14:04:17-07:00*%
%TF.ProjectId,WARBL_BL_USB_subassembly,57415242-4c5f-4424-9c5f-5553425f7375,rev?*%
%TF.SameCoordinates,Original*%
%TF.FileFunction,Paste,Top*%
%TF.FilePolarity,Positive*%
%FSLAX46Y46*%
G04 Gerber Fmt 4.6, Leading zero omitted, Abs format (unit mm)*
G04 Created by KiCad (PCBNEW (6.0.8)) date 2023-10-25 14:04:17*
%MOMM*%
%LPD*%
G01*
G04 APERTURE LIST*
%ADD10C,0.150000*%
%ADD11R,0.250000X1.100000*%
G04 APERTURE END LIST*
D10*
X86666666Y-97952380D02*
X86333333Y-97476190D01*
X86095238Y-97952380D02*
X86095238Y-96952380D01*
X86476190Y-96952380D01*
X86571428Y-97000000D01*
X86619047Y-97047619D01*
X86666666Y-97142857D01*
X86666666Y-97285714D01*
X86619047Y-97380952D01*
X86571428Y-97428571D01*
X86476190Y-97476190D01*
X86095238Y-97476190D01*
X87476190Y-97904761D02*
X87380952Y-97952380D01*
X87190476Y-97952380D01*
X87095238Y-97904761D01*
X87047619Y-97809523D01*
X87047619Y-97428571D01*
X87095238Y-97333333D01*
X87190476Y-97285714D01*
X87380952Y-97285714D01*
X87476190Y-97333333D01*
X87523809Y-97428571D01*
X87523809Y-97523809D01*
X87047619Y-97619047D01*
X88380952Y-97904761D02*
X88285714Y-97952380D01*
X88095238Y-97952380D01*
X88000000Y-97904761D01*
X87952380Y-97857142D01*
X87904761Y-97761904D01*
X87904761Y-97476190D01*
X87952380Y-97380952D01*
X88000000Y-97333333D01*
X88095238Y-97285714D01*
X88285714Y-97285714D01*
X88380952Y-97333333D01*
X88952380Y-97952380D02*
X88857142Y-97904761D01*
X88809523Y-97857142D01*
X88761904Y-97761904D01*
X88761904Y-97476190D01*
X88809523Y-97380952D01*
X88857142Y-97333333D01*
X88952380Y-97285714D01*
X89095238Y-97285714D01*
X89190476Y-97333333D01*
X89238095Y-97380952D01*
X89285714Y-97476190D01*
X89285714Y-97761904D01*
X89238095Y-97857142D01*
X89190476Y-97904761D01*
X89095238Y-97952380D01*
X88952380Y-97952380D01*
X89714285Y-97285714D02*
X89714285Y-98285714D01*
X89714285Y-97333333D02*
X89809523Y-97285714D01*
X90000000Y-97285714D01*
X90095238Y-97333333D01*
X90142857Y-97380952D01*
X90190476Y-97476190D01*
X90190476Y-97761904D01*
X90142857Y-97857142D01*
X90095238Y-97904761D01*
X90000000Y-97952380D01*
X89809523Y-97952380D01*
X89714285Y-97904761D01*
X90523809Y-97285714D02*
X90761904Y-97952380D01*
X91000000Y-97285714D02*
X90761904Y-97952380D01*
X90666666Y-98190476D01*
X90619047Y-98238095D01*
X90523809Y-98285714D01*
X92000000Y-97285714D02*
X92380952Y-97285714D01*
X92142857Y-96952380D02*
X92142857Y-97809523D01*
X92190476Y-97904761D01*
X92285714Y-97952380D01*
X92380952Y-97952380D01*
X92714285Y-97952380D02*
X92714285Y-96952380D01*
X93142857Y-97952380D02*
X93142857Y-97428571D01*
X93095238Y-97333333D01*
X93000000Y-97285714D01*
X92857142Y-97285714D01*
X92761904Y-97333333D01*
X92714285Y-97380952D01*
X93619047Y-97952380D02*
X93619047Y-97285714D01*
X93619047Y-96952380D02*
X93571428Y-97000000D01*
X93619047Y-97047619D01*
X93666666Y-97000000D01*
X93619047Y-96952380D01*
X93619047Y-97047619D01*
X94047619Y-97904761D02*
X94142857Y-97952380D01*
X94333333Y-97952380D01*
X94428571Y-97904761D01*
X94476190Y-97809523D01*
X94476190Y-97761904D01*
X94428571Y-97666666D01*
X94333333Y-97619047D01*
X94190476Y-97619047D01*
X94095238Y-97571428D01*
X94047619Y-97476190D01*
X94047619Y-97428571D01*
X94095238Y-97333333D01*
X94190476Y-97285714D01*
X94333333Y-97285714D01*
X94428571Y-97333333D01*
X95523809Y-97285714D02*
X95904761Y-97285714D01*
X95666666Y-96952380D02*
X95666666Y-97809523D01*
X95714285Y-97904761D01*
X95809523Y-97952380D01*
X95904761Y-97952380D01*
X96380952Y-97952380D02*
X96285714Y-97904761D01*
X96238095Y-97857142D01*
X96190476Y-97761904D01*
X96190476Y-97476190D01*
X96238095Y-97380952D01*
X96285714Y-97333333D01*
X96380952Y-97285714D01*
X96523809Y-97285714D01*
X96619047Y-97333333D01*
X96666666Y-97380952D01*
X96714285Y-97476190D01*
X96714285Y-97761904D01*
X96666666Y-97857142D01*
X96619047Y-97904761D01*
X96523809Y-97952380D01*
X96380952Y-97952380D01*
X97761904Y-97285714D02*
X98142857Y-97285714D01*
X97904761Y-96952380D02*
X97904761Y-97809523D01*
X97952380Y-97904761D01*
X98047619Y-97952380D01*
X98142857Y-97952380D01*
X98476190Y-97952380D02*
X98476190Y-96952380D01*
X98904761Y-97952380D02*
X98904761Y-97428571D01*
X98857142Y-97333333D01*
X98761904Y-97285714D01*
X98619047Y-97285714D01*
X98523809Y-97333333D01*
X98476190Y-97380952D01*
X99761904Y-97904761D02*
X99666666Y-97952380D01*
X99476190Y-97952380D01*
X99380952Y-97904761D01*
X99333333Y-97809523D01*
X99333333Y-97428571D01*
X99380952Y-97333333D01*
X99476190Y-97285714D01*
X99666666Y-97285714D01*
X99761904Y-97333333D01*
X99809523Y-97428571D01*
X99809523Y-97523809D01*
X99333333Y-97619047D01*
X101000000Y-97285714D02*
X101000000Y-98285714D01*
X101000000Y-97333333D02*
X101095238Y-97285714D01*
X101285714Y-97285714D01*
X101380952Y-97333333D01*
X101428571Y-97380952D01*
X101476190Y-97476190D01*
X101476190Y-97761904D01*
X101428571Y-97857142D01*
X101380952Y-97904761D01*
X101285714Y-97952380D01*
X101095238Y-97952380D01*
X101000000Y-97904761D01*
X102333333Y-97952380D02*
X102333333Y-97428571D01*
X102285714Y-97333333D01*
X102190476Y-97285714D01*
X102000000Y-97285714D01*
X101904761Y-97333333D01*
X102333333Y-97904761D02*
X102238095Y-97952380D01*
X102000000Y-97952380D01*
X101904761Y-97904761D01*
X101857142Y-97809523D01*
X101857142Y-97714285D01*
X101904761Y-97619047D01*
X102000000Y-97571428D01*
X102238095Y-97571428D01*
X102333333Y-97523809D01*
X102809523Y-97285714D02*
X102809523Y-97952380D01*
X102809523Y-97380952D02*
X102857142Y-97333333D01*
X102952380Y-97285714D01*
X103095238Y-97285714D01*
X103190476Y-97333333D01*
X103238095Y-97428571D01*
X103238095Y-97952380D01*
X104095238Y-97904761D02*
X104000000Y-97952380D01*
X103809523Y-97952380D01*
X103714285Y-97904761D01*
X103666666Y-97809523D01*
X103666666Y-97428571D01*
X103714285Y-97333333D01*
X103809523Y-97285714D01*
X104000000Y-97285714D01*
X104095238Y-97333333D01*
X104142857Y-97428571D01*
X104142857Y-97523809D01*
X103666666Y-97619047D01*
X104714285Y-97952380D02*
X104619047Y-97904761D01*
X104571428Y-97809523D01*
X104571428Y-96952380D01*
X105095238Y-97571428D02*
X105857142Y-97571428D01*
X106333333Y-97571428D02*
X107095238Y-97571428D01*
X108333333Y-97952380D02*
X108333333Y-97285714D01*
X108333333Y-97380952D02*
X108380952Y-97333333D01*
X108476190Y-97285714D01*
X108619047Y-97285714D01*
X108714285Y-97333333D01*
X108761904Y-97428571D01*
X108761904Y-97952380D01*
X108761904Y-97428571D02*
X108809523Y-97333333D01*
X108904761Y-97285714D01*
X109047619Y-97285714D01*
X109142857Y-97333333D01*
X109190476Y-97428571D01*
X109190476Y-97952380D01*
X110095238Y-97952380D02*
X110095238Y-97428571D01*
X110047619Y-97333333D01*
X109952380Y-97285714D01*
X109761904Y-97285714D01*
X109666666Y-97333333D01*
X110095238Y-97904761D02*
X110000000Y-97952380D01*
X109761904Y-97952380D01*
X109666666Y-97904761D01*
X109619047Y-97809523D01*
X109619047Y-97714285D01*
X109666666Y-97619047D01*
X109761904Y-97571428D01*
X110000000Y-97571428D01*
X110095238Y-97523809D01*
X111000000Y-97952380D02*
X111000000Y-96952380D01*
X111000000Y-97904761D02*
X110904761Y-97952380D01*
X110714285Y-97952380D01*
X110619047Y-97904761D01*
X110571428Y-97857142D01*
X110523809Y-97761904D01*
X110523809Y-97476190D01*
X110571428Y-97380952D01*
X110619047Y-97333333D01*
X110714285Y-97285714D01*
X110904761Y-97285714D01*
X111000000Y-97333333D01*
X111857142Y-97904761D02*
X111761904Y-97952380D01*
X111571428Y-97952380D01*
X111476190Y-97904761D01*
X111428571Y-97809523D01*
X111428571Y-97428571D01*
X111476190Y-97333333D01*
X111571428Y-97285714D01*
X111761904Y-97285714D01*
X111857142Y-97333333D01*
X111904761Y-97428571D01*
X111904761Y-97523809D01*
X111428571Y-97619047D01*
X113047619Y-97904761D02*
X113142857Y-97952380D01*
X113333333Y-97952380D01*
X113428571Y-97904761D01*
X113476190Y-97809523D01*
X113476190Y-97761904D01*
X113428571Y-97666666D01*
X113333333Y-97619047D01*
X113190476Y-97619047D01*
X113095238Y-97571428D01*
X113047619Y-97476190D01*
X113047619Y-97428571D01*
X113095238Y-97333333D01*
X113190476Y-97285714D01*
X113333333Y-97285714D01*
X113428571Y-97333333D01*
X114047619Y-97952380D02*
X113952380Y-97904761D01*
X113904761Y-97857142D01*
X113857142Y-97761904D01*
X113857142Y-97476190D01*
X113904761Y-97380952D01*
X113952380Y-97333333D01*
X114047619Y-97285714D01*
X114190476Y-97285714D01*
X114285714Y-97333333D01*
X114333333Y-97380952D01*
X114380952Y-97476190D01*
X114380952Y-97761904D01*
X114333333Y-97857142D01*
X114285714Y-97904761D01*
X114190476Y-97952380D01*
X114047619Y-97952380D01*
X114809523Y-97952380D02*
X114809523Y-97285714D01*
X114809523Y-97380952D02*
X114857142Y-97333333D01*
X114952380Y-97285714D01*
X115095238Y-97285714D01*
X115190476Y-97333333D01*
X115238095Y-97428571D01*
X115238095Y-97952380D01*
X115238095Y-97428571D02*
X115285714Y-97333333D01*
X115380952Y-97285714D01*
X115523809Y-97285714D01*
X115619047Y-97333333D01*
X115666666Y-97428571D01*
X115666666Y-97952380D01*
X116523809Y-97904761D02*
X116428571Y-97952380D01*
X116238095Y-97952380D01*
X116142857Y-97904761D01*
X116095238Y-97809523D01*
X116095238Y-97428571D01*
X116142857Y-97333333D01*
X116238095Y-97285714D01*
X116428571Y-97285714D01*
X116523809Y-97333333D01*
X116571428Y-97428571D01*
X116571428Y-97523809D01*
X116095238Y-97619047D01*
X118190476Y-97904761D02*
X118095238Y-97952380D01*
X117904761Y-97952380D01*
X117809523Y-97904761D01*
X117761904Y-97857142D01*
X117714285Y-97761904D01*
X117714285Y-97476190D01*
X117761904Y-97380952D01*
X117809523Y-97333333D01*
X117904761Y-97285714D01*
X118095238Y-97285714D01*
X118190476Y-97333333D01*
X118619047Y-97952380D02*
X118619047Y-96952380D01*
X119047619Y-97952380D02*
X119047619Y-97428571D01*
X119000000Y-97333333D01*
X118904761Y-97285714D01*
X118761904Y-97285714D01*
X118666666Y-97333333D01*
X118619047Y-97380952D01*
X119952380Y-97952380D02*
X119952380Y-97428571D01*
X119904761Y-97333333D01*
X119809523Y-97285714D01*
X119619047Y-97285714D01*
X119523809Y-97333333D01*
X119952380Y-97904761D02*
X119857142Y-97952380D01*
X119619047Y-97952380D01*
X119523809Y-97904761D01*
X119476190Y-97809523D01*
X119476190Y-97714285D01*
X119523809Y-97619047D01*
X119619047Y-97571428D01*
X119857142Y-97571428D01*
X119952380Y-97523809D01*
X120428571Y-97285714D02*
X120428571Y-97952380D01*
X120428571Y-97380952D02*
X120476190Y-97333333D01*
X120571428Y-97285714D01*
X120714285Y-97285714D01*
X120809523Y-97333333D01*
X120857142Y-97428571D01*
X120857142Y-97952380D01*
X121761904Y-97285714D02*
X121761904Y-98095238D01*
X121714285Y-98190476D01*
X121666666Y-98238095D01*
X121571428Y-98285714D01*
X121428571Y-98285714D01*
X121333333Y-98238095D01*
X121761904Y-97904761D02*
X121666666Y-97952380D01*
X121476190Y-97952380D01*
X121380952Y-97904761D01*
X121333333Y-97857142D01*
X121285714Y-97761904D01*
X121285714Y-97476190D01*
X121333333Y-97380952D01*
X121380952Y-97333333D01*
X121476190Y-97285714D01*
X121666666Y-97285714D01*
X121761904Y-97333333D01*
X122619047Y-97904761D02*
X122523809Y-97952380D01*
X122333333Y-97952380D01*
X122238095Y-97904761D01*
X122190476Y-97809523D01*
X122190476Y-97428571D01*
X122238095Y-97333333D01*
X122333333Y-97285714D01*
X122523809Y-97285714D01*
X122619047Y-97333333D01*
X122666666Y-97428571D01*
X122666666Y-97523809D01*
X122190476Y-97619047D01*
X123047619Y-97904761D02*
X123142857Y-97952380D01*
X123333333Y-97952380D01*
X123428571Y-97904761D01*
X123476190Y-97809523D01*
X123476190Y-97761904D01*
X123428571Y-97666666D01*
X123333333Y-97619047D01*
X123190476Y-97619047D01*
X123095238Y-97571428D01*
X123047619Y-97476190D01*
X123047619Y-97428571D01*
X123095238Y-97333333D01*
X123190476Y-97285714D01*
X123333333Y-97285714D01*
X123428571Y-97333333D01*
X123904761Y-97857142D02*
X123952380Y-97904761D01*
X123904761Y-97952380D01*
X123857142Y-97904761D01*
X123904761Y-97857142D01*
X123904761Y-97952380D01*
D11*
%TO.C,J2*%
X108250000Y-105855000D03*
X106750000Y-105855000D03*
X106250000Y-105855000D03*
X105750000Y-105855000D03*
X105250000Y-105855000D03*
X104750000Y-105855000D03*
X104250000Y-105855000D03*
X102750000Y-105855000D03*
X102750000Y-102885000D03*
X104250000Y-102885000D03*
X104750000Y-102885000D03*
X105250000Y-102885000D03*
X105750000Y-102885000D03*
X106250000Y-102885000D03*
X106750000Y-102885000D03*
X108250000Y-102885000D03*
%TD*%
M02*
