%TF.GenerationSoftware,KiCad,Pcbnew,(6.0.8)*%
%TF.CreationDate,2023-10-25T14:04:17-07:00*%
%TF.ProjectId,WARBL_BL_USB_subassembly,57415242-4c5f-4424-9c5f-5553425f7375,rev?*%
%TF.SameCoordinates,Original*%
%TF.FileFunction,Copper,L1,Top*%
%TF.FilePolarity,Positive*%
%FSLAX46Y46*%
G04 Gerber Fmt 4.6, Leading zero omitted, Abs format (unit mm)*
G04 Created by KiCad (PCBNEW (6.0.8)) date 2023-10-25 14:04:17*
%MOMM*%
%LPD*%
G01*
G04 APERTURE LIST*
%TA.AperFunction,SMDPad,CuDef*%
%ADD10R,0.300000X1.150000*%
%TD*%
%TA.AperFunction,ComponentPad*%
%ADD11O,1.600000X1.100000*%
%TD*%
%TA.AperFunction,ComponentPad*%
%ADD12O,1.400000X1.400000*%
%TD*%
%TA.AperFunction,ViaPad*%
%ADD13C,0.685800*%
%TD*%
%TA.AperFunction,Conductor*%
%ADD14C,0.152400*%
%TD*%
%TA.AperFunction,Conductor*%
%ADD15C,0.200000*%
%TD*%
G04 APERTURE END LIST*
D10*
%TO.P,J2,A1,GND_A*%
%TO.N,Net-(J1-Pad3)*%
X108250000Y-105855000D03*
%TO.P,J2,A4,VBUS_A*%
%TO.N,Net-(J1-Pad6)*%
X106750000Y-105855000D03*
%TO.P,J2,A5,CC1*%
%TO.N,Net-(J1-Pad2)*%
X106250000Y-105855000D03*
%TO.P,J2,A6,DP1*%
%TO.N,Net-(J1-Pad8)*%
X105750000Y-105855000D03*
%TO.P,J2,A7,DN1*%
%TO.N,Net-(J1-Pad1)*%
X105250000Y-105855000D03*
%TO.P,J2,A8,SBU1*%
%TO.N,unconnected-(J2-PadA8)*%
X104750000Y-105855000D03*
%TO.P,J2,A9,VBUS_A*%
%TO.N,Net-(J1-Pad6)*%
X104250000Y-105855000D03*
%TO.P,J2,A12,GND_A*%
%TO.N,Net-(J1-Pad3)*%
X102750000Y-105855000D03*
%TO.P,J2,B1,GND_B*%
X102750000Y-102885000D03*
%TO.P,J2,B4,VBUS_B*%
%TO.N,Net-(J1-Pad6)*%
X104250000Y-102885000D03*
%TO.P,J2,B5,CC2*%
%TO.N,Net-(J1-Pad7)*%
X104750000Y-102885000D03*
%TO.P,J2,B6,DP2*%
%TO.N,Net-(J1-Pad8)*%
X105250000Y-102885000D03*
%TO.P,J2,B7,DN2*%
%TO.N,Net-(J1-Pad1)*%
X105750000Y-102885000D03*
%TO.P,J2,B8,SBU2*%
%TO.N,unconnected-(J2-PadB8)*%
X106250000Y-102885000D03*
%TO.P,J2,B9,VBUS_B*%
%TO.N,Net-(J1-Pad6)*%
X106750000Y-102885000D03*
%TO.P,J2,B12,GND_B*%
%TO.N,Net-(J1-Pad3)*%
X108250000Y-102885000D03*
D11*
%TO.P,J2,S1,SHIELD*%
X109500000Y-105800000D03*
%TO.P,J2,S2,SHIELD*%
X101500000Y-105800000D03*
%TO.P,J2,S3,SHIELD*%
X109500000Y-102940000D03*
%TO.P,J2,S4,SHIELD*%
X101500000Y-102940000D03*
%TD*%
D12*
%TO.P,J1,1,Pin_1*%
%TO.N,Net-(J1-Pad1)*%
X101690000Y-108810000D03*
%TO.P,J1,2,Pin_2*%
%TO.N,Net-(J1-Pad2)*%
X104230000Y-108810000D03*
%TO.P,J1,3,Pin_3*%
%TO.N,Net-(J1-Pad3)*%
X106770000Y-108810000D03*
%TO.P,J1,4,Pin_4*%
%TO.N,unconnected-(J1-Pad4)*%
X109310000Y-108810000D03*
%TO.P,J1,5,Pin_5*%
%TO.N,unconnected-(J1-Pad5)*%
X109310000Y-101190000D03*
%TO.P,J1,6,Pin_6*%
%TO.N,Net-(J1-Pad6)*%
X106770000Y-101190000D03*
%TO.P,J1,7,Pin_7*%
%TO.N,Net-(J1-Pad7)*%
X104230000Y-101190000D03*
%TO.P,J1,8,Pin_8*%
%TO.N,Net-(J1-Pad8)*%
X101690000Y-101190000D03*
%TD*%
D13*
%TO.N,Net-(J1-Pad1)*%
X104600000Y-104600000D03*
X106000000Y-104440000D03*
X102700000Y-107100000D03*
%TO.N,Net-(J1-Pad6)*%
X103680000Y-102590000D03*
X103674800Y-105367610D03*
%TD*%
D14*
%TO.N,Net-(J1-Pad1)*%
X102700000Y-107800000D02*
X102700000Y-107100000D01*
X105250000Y-105250000D02*
X105250000Y-105855000D01*
X101690000Y-108810000D02*
X102700000Y-107800000D01*
X105250000Y-105250000D02*
X104600000Y-104600000D01*
X105750000Y-103515000D02*
X105750000Y-104190000D01*
X105750000Y-104190000D02*
X106000000Y-104440000D01*
%TO.N,Net-(J1-Pad2)*%
X106250000Y-107212400D02*
X104652400Y-108810000D01*
X106250000Y-107212400D02*
X106250000Y-105855000D01*
X104652400Y-108810000D02*
X104230000Y-108810000D01*
%TO.N,Net-(J1-Pad3)*%
X109445000Y-102885000D02*
X109500000Y-102940000D01*
X108250000Y-105855000D02*
X109445000Y-105855000D01*
X108250000Y-105855000D02*
X108250000Y-107330000D01*
X108250000Y-102885000D02*
X109445000Y-102885000D01*
X101555000Y-105855000D02*
X101500000Y-105800000D01*
X101555000Y-102885000D02*
X101500000Y-102940000D01*
X102750000Y-105855000D02*
X101555000Y-105855000D01*
X109445000Y-105855000D02*
X109500000Y-105800000D01*
X102750000Y-102885000D02*
X101555000Y-102885000D01*
X108250000Y-107330000D02*
X106770000Y-108810000D01*
D15*
%TO.N,Net-(J1-Pad6)*%
X106750000Y-102885000D02*
X106750000Y-101210000D01*
X104250000Y-103515000D02*
X103674800Y-104090200D01*
D14*
X104250000Y-103515000D02*
X104250000Y-103050000D01*
D15*
X106750000Y-101210000D02*
X106770000Y-101190000D01*
X103674800Y-105367610D02*
X103762610Y-105367610D01*
X103790000Y-102590000D02*
X103680000Y-102590000D01*
X103674800Y-104090200D02*
X103674800Y-105367610D01*
X103762610Y-105367610D02*
X104250000Y-105855000D01*
D14*
X104250000Y-105855000D02*
X104162190Y-105855000D01*
D15*
X106750000Y-105855000D02*
X106750000Y-102885000D01*
X104250000Y-103050000D02*
X103790000Y-102590000D01*
D14*
%TO.N,Net-(J1-Pad7)*%
X104750000Y-101710000D02*
X104230000Y-101190000D01*
X104750000Y-102885000D02*
X104750000Y-101710000D01*
%TO.N,Net-(J1-Pad8)*%
X105750000Y-105855000D02*
X105750000Y-105172380D01*
X105750000Y-106582400D02*
X105750000Y-105855000D01*
X105750000Y-105172380D02*
X105609000Y-105031380D01*
X105250000Y-104660020D02*
X105250000Y-103515000D01*
X102679949Y-101190000D02*
X103116200Y-101626251D01*
X103449000Y-106841400D02*
X105491000Y-106841400D01*
X105609000Y-105031380D02*
X105609000Y-105019020D01*
X101690000Y-101190000D02*
X102679949Y-101190000D01*
X103116200Y-106508600D02*
X103449000Y-106841400D01*
X105609000Y-105019020D02*
X105250000Y-104660020D01*
X103116200Y-101626251D02*
X103116200Y-106508600D01*
X105491000Y-106841400D02*
X105750000Y-106582400D01*
%TD*%
%TA.AperFunction,Conductor*%
%TO.N,Net-(J1-Pad3)*%
G36*
X108402350Y-100520502D02*
G01*
X108448843Y-100574158D01*
X108458947Y-100644432D01*
X108444644Y-100687201D01*
X108418306Y-100735110D01*
X108385956Y-100793954D01*
X108384095Y-100799821D01*
X108384094Y-100799823D01*
X108368672Y-100848440D01*
X108326628Y-100980978D01*
X108304757Y-101175963D01*
X108321175Y-101371483D01*
X108375258Y-101560091D01*
X108378076Y-101565574D01*
X108462123Y-101729113D01*
X108462126Y-101729117D01*
X108464944Y-101734601D01*
X108586818Y-101888369D01*
X108591511Y-101892363D01*
X108591512Y-101892364D01*
X108620590Y-101917111D01*
X108659503Y-101976493D01*
X108659676Y-101995967D01*
X108679355Y-101992778D01*
X108734220Y-102013818D01*
X108736238Y-102015535D01*
X108771151Y-102035047D01*
X108854884Y-102081844D01*
X108904590Y-102132537D01*
X108918998Y-102202057D01*
X108893535Y-102268330D01*
X108862499Y-102297204D01*
X108787719Y-102346232D01*
X108719784Y-102366855D01*
X108651483Y-102347475D01*
X108604503Y-102294246D01*
X108595055Y-102265441D01*
X108590817Y-102244137D01*
X108581501Y-102221645D01*
X108558885Y-102187797D01*
X108542591Y-102135756D01*
X108490709Y-102129474D01*
X108465864Y-102119183D01*
X108425766Y-102111207D01*
X108416959Y-102110340D01*
X108402876Y-102114475D01*
X108401671Y-102115865D01*
X108400000Y-102123548D01*
X108400000Y-102716885D01*
X108404475Y-102732124D01*
X108405865Y-102733329D01*
X108413548Y-102735000D01*
X108441885Y-102735000D01*
X108457124Y-102730525D01*
X108458024Y-102729487D01*
X108517750Y-102691104D01*
X108553248Y-102686000D01*
X109628000Y-102686000D01*
X109696121Y-102706002D01*
X109742614Y-102759658D01*
X109754000Y-102812000D01*
X109754000Y-103068000D01*
X109733998Y-103136121D01*
X109680342Y-103182614D01*
X109628000Y-103194000D01*
X108586000Y-103194000D01*
X108517879Y-103173998D01*
X108471386Y-103120342D01*
X108460000Y-103068000D01*
X108460000Y-103053115D01*
X108455525Y-103037876D01*
X108454135Y-103036671D01*
X108446452Y-103035000D01*
X108418115Y-103035000D01*
X108402876Y-103039475D01*
X108401671Y-103040865D01*
X108400000Y-103048548D01*
X108400000Y-103641885D01*
X108404475Y-103657124D01*
X108405865Y-103658329D01*
X108413537Y-103659997D01*
X108425766Y-103658793D01*
X108465864Y-103650817D01*
X108488355Y-103641501D01*
X108533876Y-103611085D01*
X108551085Y-103593876D01*
X108584826Y-103543379D01*
X108639303Y-103497851D01*
X108709746Y-103489003D01*
X108771170Y-103517356D01*
X108825456Y-103563475D01*
X108837552Y-103571542D01*
X108980272Y-103644418D01*
X108993902Y-103649487D01*
X109047955Y-103662714D01*
X109109370Y-103698334D01*
X109141777Y-103761503D01*
X109134888Y-103832164D01*
X109092068Y-103887039D01*
X109071376Y-103902072D01*
X109071373Y-103902075D01*
X109064963Y-103906732D01*
X108963420Y-104029476D01*
X108895593Y-104173616D01*
X108865743Y-104330096D01*
X108875746Y-104489083D01*
X108924972Y-104640587D01*
X109010330Y-104775090D01*
X109016109Y-104780517D01*
X109016110Y-104780518D01*
X109102042Y-104861213D01*
X109138007Y-104922425D01*
X109135170Y-104993365D01*
X109094429Y-105051509D01*
X109058780Y-105071502D01*
X108918773Y-105122322D01*
X108905774Y-105128832D01*
X108771758Y-105216696D01*
X108768070Y-105219780D01*
X108702978Y-105248129D01*
X108632894Y-105236787D01*
X108582485Y-105193117D01*
X108551085Y-105146124D01*
X108533876Y-105128915D01*
X108488355Y-105098499D01*
X108465864Y-105089183D01*
X108425766Y-105081207D01*
X108416959Y-105080340D01*
X108402876Y-105084475D01*
X108401671Y-105085865D01*
X108400000Y-105093548D01*
X108400000Y-105686885D01*
X108404475Y-105702124D01*
X108405865Y-105703329D01*
X108413548Y-105705000D01*
X108441885Y-105705000D01*
X108457124Y-105700525D01*
X108458329Y-105699135D01*
X108460000Y-105691452D01*
X108460000Y-105672000D01*
X108480002Y-105603879D01*
X108533658Y-105557386D01*
X108586000Y-105546000D01*
X109628000Y-105546000D01*
X109696121Y-105566002D01*
X109742614Y-105619658D01*
X109754000Y-105672000D01*
X109754000Y-106531885D01*
X109758475Y-106547124D01*
X109759865Y-106548329D01*
X109767548Y-106550000D01*
X109790132Y-106550000D01*
X109797436Y-106549575D01*
X109916440Y-106535701D01*
X109930592Y-106532356D01*
X110081227Y-106477678D01*
X110094226Y-106471168D01*
X110228242Y-106383303D01*
X110239394Y-106373979D01*
X110282027Y-106328975D01*
X110343397Y-106293277D01*
X110414323Y-106296425D01*
X110472289Y-106337419D01*
X110498890Y-106403243D01*
X110499500Y-106415628D01*
X110499500Y-108434839D01*
X110479498Y-108502960D01*
X110425842Y-108549453D01*
X110355568Y-108559557D01*
X110290988Y-108530063D01*
X110252878Y-108471257D01*
X110241265Y-108432793D01*
X110239484Y-108426894D01*
X110147370Y-108253653D01*
X110023361Y-108101602D01*
X109872180Y-107976535D01*
X109699585Y-107883213D01*
X109572136Y-107843761D01*
X109518039Y-107827015D01*
X109518036Y-107827014D01*
X109512152Y-107825193D01*
X109506027Y-107824549D01*
X109506026Y-107824549D01*
X109323147Y-107805327D01*
X109323146Y-107805327D01*
X109317019Y-107804683D01*
X109194383Y-107815844D01*
X109127759Y-107821907D01*
X109127758Y-107821907D01*
X109121618Y-107822466D01*
X109115704Y-107824207D01*
X109115702Y-107824207D01*
X109070676Y-107837459D01*
X108933393Y-107877864D01*
X108927928Y-107880721D01*
X108764972Y-107965912D01*
X108764968Y-107965915D01*
X108759512Y-107968767D01*
X108754712Y-107972627D01*
X108754711Y-107972627D01*
X108741279Y-107983427D01*
X108606600Y-108091711D01*
X108480480Y-108242016D01*
X108477516Y-108247408D01*
X108477513Y-108247412D01*
X108413918Y-108363092D01*
X108385956Y-108413954D01*
X108326628Y-108600978D01*
X108304757Y-108795963D01*
X108321175Y-108991483D01*
X108375258Y-109180091D01*
X108445058Y-109315908D01*
X108458405Y-109385637D01*
X108431935Y-109451514D01*
X108374050Y-109492622D01*
X108332991Y-109499500D01*
X107629385Y-109499500D01*
X107561264Y-109479498D01*
X107514771Y-109425842D01*
X107504667Y-109355568D01*
X107520266Y-109310500D01*
X107593416Y-109183800D01*
X107598760Y-109171798D01*
X107628187Y-109081230D01*
X107628590Y-109067133D01*
X107622218Y-109064000D01*
X105924329Y-109064000D01*
X105910798Y-109067973D01*
X105909788Y-109075000D01*
X105941240Y-109171798D01*
X105946584Y-109183800D01*
X106019734Y-109310500D01*
X106036472Y-109379496D01*
X106013251Y-109446587D01*
X105957444Y-109490474D01*
X105910615Y-109499500D01*
X105205516Y-109499500D01*
X105137395Y-109479498D01*
X105090902Y-109425842D01*
X105080798Y-109355568D01*
X105095960Y-109311263D01*
X105096025Y-109311150D01*
X105117489Y-109273366D01*
X105145379Y-109224272D01*
X105145381Y-109224267D01*
X105148425Y-109218909D01*
X105210358Y-109032732D01*
X105234949Y-108838071D01*
X105235338Y-108810237D01*
X105256290Y-108742403D01*
X105272231Y-108722903D01*
X105799378Y-108195756D01*
X105861690Y-108161730D01*
X105932505Y-108166795D01*
X105989341Y-108209342D01*
X106014152Y-108275862D01*
X105997592Y-108347851D01*
X105946584Y-108436200D01*
X105941240Y-108448202D01*
X105911813Y-108538770D01*
X105911410Y-108552867D01*
X105917782Y-108556000D01*
X106497885Y-108556000D01*
X106513124Y-108551525D01*
X106514329Y-108550135D01*
X106516000Y-108542452D01*
X106516000Y-108537885D01*
X107024000Y-108537885D01*
X107028475Y-108553124D01*
X107029865Y-108554329D01*
X107037548Y-108556000D01*
X107615671Y-108556000D01*
X107629202Y-108552027D01*
X107630212Y-108545000D01*
X107598760Y-108448202D01*
X107593416Y-108436200D01*
X107505429Y-108283800D01*
X107497707Y-108273172D01*
X107379949Y-108142389D01*
X107370195Y-108133607D01*
X107227821Y-108030165D01*
X107216447Y-108023598D01*
X107055681Y-107952021D01*
X107043186Y-107947962D01*
X107041720Y-107947650D01*
X107027659Y-107948723D01*
X107024000Y-107958676D01*
X107024000Y-108537885D01*
X106516000Y-108537885D01*
X106516000Y-107961998D01*
X106512027Y-107948467D01*
X106501533Y-107946958D01*
X106496808Y-107947963D01*
X106484327Y-107952018D01*
X106323557Y-108023597D01*
X106319513Y-108025932D01*
X106250518Y-108042671D01*
X106183425Y-108019452D01*
X106139537Y-107963646D01*
X106132786Y-107892971D01*
X106167415Y-107827719D01*
X106478442Y-107516692D01*
X106496835Y-107501836D01*
X106498278Y-107500523D01*
X106507030Y-107494872D01*
X106527643Y-107468724D01*
X106531539Y-107464340D01*
X106531463Y-107464276D01*
X106534821Y-107460313D01*
X106538497Y-107456637D01*
X106549624Y-107441067D01*
X106553173Y-107436340D01*
X106584669Y-107396386D01*
X106587680Y-107387813D01*
X106592965Y-107380417D01*
X106607542Y-107331675D01*
X106609374Y-107326038D01*
X106623595Y-107285544D01*
X106623596Y-107285538D01*
X106626222Y-107278061D01*
X106626700Y-107272542D01*
X106626700Y-107269827D01*
X106626812Y-107267241D01*
X106626854Y-107267102D01*
X106627005Y-107267108D01*
X106627046Y-107266459D01*
X106628898Y-107260265D01*
X106626797Y-107206796D01*
X106626700Y-107201850D01*
X106626700Y-106856500D01*
X106646702Y-106788379D01*
X106700358Y-106741886D01*
X106752700Y-106730500D01*
X106944646Y-106730500D01*
X106948350Y-106730059D01*
X106948353Y-106730059D01*
X106955746Y-106729179D01*
X106970846Y-106727382D01*
X107073153Y-106681939D01*
X107152241Y-106602713D01*
X107164249Y-106575553D01*
X107193675Y-106508992D01*
X107197506Y-106500327D01*
X107200500Y-106474646D01*
X107200500Y-106443511D01*
X107900000Y-106443511D01*
X107901207Y-106455766D01*
X107909183Y-106495864D01*
X107918499Y-106518355D01*
X107948915Y-106563876D01*
X107966124Y-106581085D01*
X108011645Y-106611501D01*
X108034136Y-106620817D01*
X108074234Y-106628793D01*
X108083041Y-106629660D01*
X108097124Y-106625525D01*
X108098329Y-106624135D01*
X108100000Y-106616452D01*
X108100000Y-106611885D01*
X108400000Y-106611885D01*
X108404475Y-106627124D01*
X108405865Y-106628329D01*
X108413537Y-106629997D01*
X108425766Y-106628793D01*
X108465864Y-106620817D01*
X108488355Y-106611501D01*
X108533876Y-106581085D01*
X108551085Y-106563876D01*
X108581501Y-106518355D01*
X108590817Y-106495864D01*
X108595240Y-106473629D01*
X108628148Y-106410719D01*
X108689843Y-106375588D01*
X108760738Y-106379388D01*
X108800400Y-106402187D01*
X108825461Y-106423478D01*
X108837552Y-106431542D01*
X108980272Y-106504418D01*
X108993900Y-106509487D01*
X109151218Y-106547982D01*
X109162270Y-106549664D01*
X109165753Y-106549880D01*
X109169635Y-106550000D01*
X109227885Y-106550000D01*
X109243124Y-106545525D01*
X109244329Y-106544135D01*
X109246000Y-106536452D01*
X109246000Y-106072115D01*
X109241525Y-106056876D01*
X109240135Y-106055671D01*
X109232452Y-106054000D01*
X108555751Y-106054000D01*
X108487630Y-106033998D01*
X108473239Y-106023225D01*
X108454135Y-106006671D01*
X108446452Y-106005000D01*
X108418115Y-106005000D01*
X108402876Y-106009475D01*
X108401671Y-106010865D01*
X108400000Y-106018548D01*
X108400000Y-106611885D01*
X108100000Y-106611885D01*
X108100000Y-106023115D01*
X108095525Y-106007876D01*
X108094135Y-106006671D01*
X108086452Y-106005000D01*
X107918115Y-106005000D01*
X107902876Y-106009475D01*
X107901671Y-106010865D01*
X107900000Y-106018548D01*
X107900000Y-106443511D01*
X107200500Y-106443511D01*
X107200500Y-105686885D01*
X107900000Y-105686885D01*
X107904475Y-105702124D01*
X107905865Y-105703329D01*
X107913548Y-105705000D01*
X108081885Y-105705000D01*
X108097124Y-105700525D01*
X108098329Y-105699135D01*
X108100000Y-105691452D01*
X108100000Y-105098115D01*
X108095525Y-105082876D01*
X108094135Y-105081671D01*
X108086463Y-105080003D01*
X108074234Y-105081207D01*
X108034136Y-105089183D01*
X108011645Y-105098499D01*
X107966124Y-105128915D01*
X107948915Y-105146124D01*
X107918499Y-105191645D01*
X107909183Y-105214136D01*
X107901207Y-105254234D01*
X107900000Y-105266489D01*
X107900000Y-105686885D01*
X107200500Y-105686885D01*
X107200500Y-105235354D01*
X107197382Y-105209154D01*
X107191876Y-105196757D01*
X107161349Y-105128032D01*
X107150500Y-105076884D01*
X107150500Y-103663261D01*
X107161260Y-103612313D01*
X107193675Y-103538993D01*
X107193675Y-103538992D01*
X107197506Y-103530327D01*
X107200500Y-103504646D01*
X107200500Y-103473511D01*
X107900000Y-103473511D01*
X107901207Y-103485766D01*
X107909183Y-103525864D01*
X107918499Y-103548355D01*
X107948915Y-103593876D01*
X107966124Y-103611085D01*
X108011645Y-103641501D01*
X108034136Y-103650817D01*
X108074234Y-103658793D01*
X108083041Y-103659660D01*
X108097124Y-103655525D01*
X108098329Y-103654135D01*
X108100000Y-103646452D01*
X108100000Y-103053115D01*
X108095525Y-103037876D01*
X108094135Y-103036671D01*
X108086452Y-103035000D01*
X107918115Y-103035000D01*
X107902876Y-103039475D01*
X107901671Y-103040865D01*
X107900000Y-103048548D01*
X107900000Y-103473511D01*
X107200500Y-103473511D01*
X107200500Y-102716885D01*
X107900000Y-102716885D01*
X107904475Y-102732124D01*
X107905865Y-102733329D01*
X107913548Y-102735000D01*
X108081885Y-102735000D01*
X108097124Y-102730525D01*
X108098329Y-102729135D01*
X108100000Y-102721452D01*
X108100000Y-102128115D01*
X108095525Y-102112876D01*
X108094135Y-102111671D01*
X108086463Y-102110003D01*
X108074234Y-102111207D01*
X108034136Y-102119183D01*
X108011645Y-102128499D01*
X107966124Y-102158915D01*
X107948915Y-102176124D01*
X107918499Y-102221645D01*
X107909183Y-102244136D01*
X107901207Y-102284234D01*
X107900000Y-102296489D01*
X107900000Y-102716885D01*
X107200500Y-102716885D01*
X107200500Y-102265354D01*
X107197382Y-102239154D01*
X107193544Y-102230513D01*
X107191039Y-102221400D01*
X107192439Y-102221015D01*
X107184400Y-102160654D01*
X107214562Y-102096383D01*
X107252114Y-102067415D01*
X107303192Y-102041614D01*
X107303195Y-102041612D01*
X107308689Y-102038837D01*
X107325645Y-102025590D01*
X107419924Y-101951931D01*
X107463303Y-101918040D01*
X107493084Y-101883539D01*
X107587485Y-101774173D01*
X107587485Y-101774172D01*
X107591509Y-101769511D01*
X107688425Y-101598909D01*
X107750358Y-101412732D01*
X107774949Y-101218071D01*
X107775341Y-101190000D01*
X107756194Y-100994728D01*
X107754413Y-100988829D01*
X107754412Y-100988824D01*
X107701265Y-100812793D01*
X107699484Y-100806894D01*
X107639331Y-100693763D01*
X107635019Y-100685653D01*
X107620699Y-100616116D01*
X107646247Y-100549875D01*
X107703551Y-100507963D01*
X107746270Y-100500500D01*
X108334229Y-100500500D01*
X108402350Y-100520502D01*
G37*
%TD.AperFunction*%
%TA.AperFunction,Conductor*%
G36*
X102482121Y-105566002D02*
G01*
X102528614Y-105619658D01*
X102540000Y-105672000D01*
X102540000Y-105686885D01*
X102544475Y-105702124D01*
X102545865Y-105703329D01*
X102553548Y-105705000D01*
X102613500Y-105705000D01*
X102681621Y-105725002D01*
X102728114Y-105778658D01*
X102739500Y-105831000D01*
X102739500Y-105879000D01*
X102719498Y-105947121D01*
X102665842Y-105993614D01*
X102613500Y-106005000D01*
X102558115Y-106005000D01*
X102542876Y-106009475D01*
X102541976Y-106010513D01*
X102482250Y-106048896D01*
X102446752Y-106054000D01*
X101772115Y-106054000D01*
X101756876Y-106058475D01*
X101755671Y-106059865D01*
X101754000Y-106067548D01*
X101754000Y-106531885D01*
X101758475Y-106547124D01*
X101759865Y-106548329D01*
X101767548Y-106550000D01*
X101790132Y-106550000D01*
X101797436Y-106549575D01*
X101916440Y-106535701D01*
X101930592Y-106532356D01*
X102067082Y-106482812D01*
X102137939Y-106478371D01*
X102199949Y-106512943D01*
X102233425Y-106575553D01*
X102227736Y-106646321D01*
X102213160Y-106673702D01*
X102173242Y-106730500D01*
X102128804Y-106793728D01*
X102072236Y-106938818D01*
X102051910Y-107093213D01*
X102068998Y-107248000D01*
X102122516Y-107394243D01*
X102209372Y-107523499D01*
X102214985Y-107528606D01*
X102214988Y-107528610D01*
X102234406Y-107546279D01*
X102271328Y-107606920D01*
X102269603Y-107677895D01*
X102238700Y-107728566D01*
X102136743Y-107830523D01*
X102074431Y-107864549D01*
X102010389Y-107861793D01*
X101898039Y-107827015D01*
X101898036Y-107827014D01*
X101892152Y-107825193D01*
X101886027Y-107824549D01*
X101886026Y-107824549D01*
X101703147Y-107805327D01*
X101703146Y-107805327D01*
X101697019Y-107804683D01*
X101574383Y-107815844D01*
X101507759Y-107821907D01*
X101507758Y-107821907D01*
X101501618Y-107822466D01*
X101495704Y-107824207D01*
X101495702Y-107824207D01*
X101450676Y-107837459D01*
X101313393Y-107877864D01*
X101307928Y-107880721D01*
X101144972Y-107965912D01*
X101144968Y-107965915D01*
X101139512Y-107968767D01*
X101134712Y-107972627D01*
X101134711Y-107972627D01*
X101121279Y-107983427D01*
X100986600Y-108091711D01*
X100860480Y-108242016D01*
X100857516Y-108247408D01*
X100857513Y-108247412D01*
X100793918Y-108363092D01*
X100765956Y-108413954D01*
X100764095Y-108419821D01*
X100764094Y-108419823D01*
X100746602Y-108474965D01*
X100706938Y-108533849D01*
X100641736Y-108561941D01*
X100571697Y-108550323D01*
X100519057Y-108502683D01*
X100500500Y-108436866D01*
X100500500Y-106419781D01*
X100520502Y-106351660D01*
X100574158Y-106305167D01*
X100644432Y-106295063D01*
X100708079Y-106323756D01*
X100825456Y-106423475D01*
X100837552Y-106431542D01*
X100980272Y-106504418D01*
X100993900Y-106509487D01*
X101151218Y-106547982D01*
X101162270Y-106549664D01*
X101165753Y-106549880D01*
X101169635Y-106550000D01*
X101227885Y-106550000D01*
X101243124Y-106545525D01*
X101244329Y-106544135D01*
X101246000Y-106536452D01*
X101246000Y-105672000D01*
X101266002Y-105603879D01*
X101319658Y-105557386D01*
X101372000Y-105546000D01*
X102414000Y-105546000D01*
X102482121Y-105566002D01*
G37*
%TD.AperFunction*%
%TA.AperFunction,Conductor*%
G36*
X102512370Y-102706002D02*
G01*
X102526761Y-102716775D01*
X102545865Y-102733329D01*
X102553548Y-102735000D01*
X102613500Y-102735000D01*
X102681621Y-102755002D01*
X102728114Y-102808658D01*
X102739500Y-102861000D01*
X102739500Y-102909000D01*
X102719498Y-102977121D01*
X102665842Y-103023614D01*
X102613500Y-103035000D01*
X102558115Y-103035000D01*
X102542876Y-103039475D01*
X102541671Y-103040865D01*
X102540000Y-103048548D01*
X102540000Y-103068000D01*
X102519998Y-103136121D01*
X102466342Y-103182614D01*
X102414000Y-103194000D01*
X101372000Y-103194000D01*
X101303879Y-103173998D01*
X101257386Y-103120342D01*
X101246000Y-103068000D01*
X101246000Y-102812000D01*
X101266002Y-102743879D01*
X101319658Y-102697386D01*
X101372000Y-102686000D01*
X102444249Y-102686000D01*
X102512370Y-102706002D01*
G37*
%TD.AperFunction*%
%TD*%
M02*
