%TF.GenerationSoftware,KiCad,Pcbnew,(6.0.8)*%
%TF.CreationDate,2023-10-25T14:04:17-07:00*%
%TF.ProjectId,WARBL_BL_USB_subassembly,57415242-4c5f-4424-9c5f-5553425f7375,rev?*%
%TF.SameCoordinates,Original*%
%TF.FileFunction,Profile,NP*%
%FSLAX46Y46*%
G04 Gerber Fmt 4.6, Leading zero omitted, Abs format (unit mm)*
G04 Created by KiCad (PCBNEW (6.0.8)) date 2023-10-25 14:04:17*
%MOMM*%
%LPD*%
G01*
G04 APERTURE LIST*
%TA.AperFunction,Profile*%
%ADD10C,0.200000*%
%TD*%
%TA.AperFunction,Profile*%
%ADD11C,0.010000*%
%TD*%
G04 APERTURE END LIST*
D10*
X110978675Y-109427573D02*
X110984313Y-109402592D01*
X100572427Y-100021325D02*
X100547652Y-100027812D01*
X110742903Y-100184715D02*
X110723316Y-100168217D01*
X110476886Y-109964859D02*
X110501160Y-109956696D01*
X110250000Y-110000000D02*
X110275606Y-109999563D01*
X110639688Y-109890815D02*
X110661339Y-109877137D01*
X100296823Y-109847604D02*
X100317490Y-109862727D01*
X110996068Y-109326698D02*
X110998252Y-109301182D01*
X100201873Y-100238085D02*
X100184715Y-100257097D01*
X110452348Y-109972188D02*
X110476886Y-109964859D01*
X110402592Y-100015687D02*
X110377433Y-100010905D01*
X100122863Y-109661339D02*
X100137273Y-109682510D01*
X110890815Y-109639688D02*
X110903745Y-109617583D01*
X110402592Y-109984313D02*
X110427573Y-109978675D01*
X110831783Y-100276684D02*
X110815285Y-100257097D01*
X100296823Y-100152396D02*
X100276684Y-100168217D01*
X110862727Y-109682510D02*
X110877137Y-109661339D01*
X110780330Y-100219670D02*
X110761915Y-100201873D01*
X100698818Y-100001748D02*
X100673302Y-100003932D01*
X100072694Y-109572113D02*
X100084086Y-109595049D01*
X100109185Y-109639688D02*
X100122863Y-109661339D01*
X100096255Y-109617583D02*
X100109185Y-109639688D01*
X110780330Y-109780330D02*
X110798127Y-109761915D01*
X110927306Y-100427887D02*
X110915914Y-100404951D01*
X100168217Y-100276684D02*
X100152396Y-100296823D01*
X100035141Y-109476886D02*
X100043304Y-109501160D01*
X110862727Y-100317490D02*
X110847604Y-100296823D01*
X100137273Y-100317490D02*
X100122863Y-100338661D01*
X110956696Y-109501160D02*
X110964859Y-109476886D01*
X110984313Y-100597408D02*
X110978675Y-100572427D01*
X100382417Y-109903745D02*
X100404951Y-109915914D01*
X100021325Y-100572427D02*
X100015687Y-100597408D01*
X100219670Y-109780330D02*
X100238085Y-109798127D01*
X110937908Y-109548801D02*
X110947709Y-109525141D01*
X110525141Y-109947709D02*
X110548801Y-109937908D01*
X100052291Y-109525141D02*
X100062092Y-109548801D01*
X110427573Y-109978675D02*
X110452348Y-109972188D01*
X110595049Y-100084086D02*
X110572113Y-100072694D01*
X100043304Y-100498840D02*
X100035141Y-100523114D01*
X100184715Y-109742903D02*
X100201873Y-109761915D01*
X100317490Y-100137273D02*
X100296823Y-100152396D01*
X100257097Y-109815285D02*
X100276684Y-109831783D01*
X100052291Y-100474859D02*
X100043304Y-100498840D01*
X100062092Y-109548801D02*
X100072694Y-109572113D01*
X110937908Y-100451199D02*
X110927306Y-100427887D01*
X100597408Y-100015687D02*
X100572427Y-100021325D01*
X110761915Y-100201873D02*
X110742903Y-100184715D01*
X110617583Y-109903745D02*
X110639688Y-109890815D01*
X100021325Y-109427573D02*
X100027812Y-109452348D01*
X110250000Y-100000000D02*
X100750000Y-100000000D01*
X110572113Y-100072694D02*
X110548801Y-100062092D01*
X100027812Y-100547652D02*
X100021325Y-100572427D01*
X100201873Y-109761915D02*
X100219670Y-109780330D01*
X100072694Y-100427887D02*
X100062092Y-100451199D01*
X100404951Y-100084086D02*
X100382417Y-100096255D01*
X100523114Y-109964859D02*
X100547652Y-109972188D01*
X110847604Y-100296823D02*
X110831783Y-100276684D01*
X110301182Y-109998252D02*
X110326698Y-109996068D01*
X110798127Y-109761915D02*
X110815285Y-109742903D01*
X110275606Y-109999563D02*
X110301182Y-109998252D01*
X111000000Y-109250000D02*
X111000000Y-100750000D01*
X100622567Y-109989095D02*
X100647875Y-109993014D01*
X100015687Y-100597408D02*
X100010905Y-100622567D01*
X110703177Y-109847604D02*
X110723316Y-109831783D01*
X100043304Y-109501160D02*
X100052291Y-109525141D01*
X110964859Y-100523114D02*
X110956696Y-100498840D01*
X110978675Y-100572427D02*
X110972188Y-100547652D01*
X100427887Y-109927306D02*
X100451199Y-109937908D01*
X100698818Y-109998252D02*
X100724394Y-109999563D01*
X100572427Y-109978675D02*
X100597408Y-109984313D01*
X110964859Y-109476886D02*
X110972188Y-109452348D01*
X110989095Y-109377433D02*
X110993014Y-109352125D01*
X100003932Y-109326698D02*
X100006986Y-109352125D01*
X110998252Y-109301182D02*
X110999563Y-109275606D01*
X100000000Y-100750000D02*
X100000000Y-109250000D01*
X100360312Y-109890815D02*
X100382417Y-109903745D01*
X100062092Y-100451199D02*
X100052291Y-100474859D01*
X100673302Y-100003932D02*
X100647875Y-100006986D01*
X110452348Y-100027812D02*
X110427573Y-100021325D01*
X110989095Y-100622567D02*
X110984313Y-100597408D01*
X100006986Y-109352125D02*
X100010905Y-109377433D01*
X100109185Y-100360312D02*
X100096255Y-100382417D01*
X110890815Y-100360312D02*
X110877137Y-100338661D01*
X100523114Y-100035141D02*
X100498840Y-100043304D01*
X100547652Y-100027812D02*
X100523114Y-100035141D01*
X100498840Y-100043304D02*
X100474859Y-100052291D01*
X100724394Y-109999563D02*
X100750000Y-110000000D01*
X100152396Y-109703177D02*
X100168217Y-109723316D01*
X100474859Y-100052291D02*
X100451199Y-100062092D01*
X100750000Y-110000000D02*
X110250000Y-110000000D01*
X100000437Y-100724394D02*
X100000000Y-100750000D01*
X100257097Y-100184715D02*
X100238085Y-100201873D01*
X100474859Y-109947709D02*
X100498840Y-109956696D01*
X110501160Y-100043304D02*
X110476886Y-100035141D01*
X110476886Y-100035141D02*
X110452348Y-100027812D01*
X100338661Y-100122863D02*
X100317490Y-100137273D01*
X100451199Y-100062092D02*
X100427887Y-100072694D01*
X100010905Y-109377433D02*
X100015687Y-109402592D01*
X100547652Y-109972188D02*
X100572427Y-109978675D01*
X100000000Y-109250000D02*
X100000437Y-109275606D01*
X110877137Y-109661339D02*
X110890815Y-109639688D01*
X110352125Y-109993014D02*
X110377433Y-109989095D01*
X100238085Y-109798127D02*
X100257097Y-109815285D01*
X110815285Y-100257097D02*
X110798127Y-100238085D01*
X110548801Y-100062092D02*
X110525141Y-100052291D01*
X110877137Y-100338661D02*
X110862727Y-100317490D01*
X110798127Y-100238085D02*
X110780330Y-100219670D01*
X100035141Y-100523114D02*
X100027812Y-100547652D01*
X100276684Y-109831783D02*
X100296823Y-109847604D01*
X110998252Y-100698818D02*
X110996068Y-100673302D01*
X110742903Y-109815285D02*
X110761915Y-109798127D01*
X110682510Y-109862727D02*
X110703177Y-109847604D01*
X100168217Y-109723316D02*
X100184715Y-109742903D01*
X110682510Y-100137273D02*
X110661339Y-100122863D01*
X100317490Y-109862727D02*
X100338661Y-109877137D01*
X110326698Y-100003932D02*
X110301182Y-100001748D01*
X110903745Y-109617583D02*
X110915914Y-109595049D01*
X100001748Y-109301182D02*
X100003932Y-109326698D01*
X100001748Y-100698818D02*
X100000437Y-100724394D01*
X110377433Y-109989095D02*
X110402592Y-109984313D01*
X110947709Y-100474859D02*
X110937908Y-100451199D01*
X100152396Y-100296823D02*
X100137273Y-100317490D01*
X100084086Y-100404951D02*
X100072694Y-100427887D01*
X111000000Y-100750000D02*
X110999563Y-100724394D01*
X100622567Y-100010905D02*
X100597408Y-100015687D01*
X110915914Y-109595049D02*
X110927306Y-109572113D01*
X110993014Y-109352125D02*
X110996068Y-109326698D01*
X100027812Y-109452348D02*
X100035141Y-109476886D01*
X110548801Y-109937908D02*
X110572113Y-109927306D01*
X110915914Y-100404951D02*
X110903745Y-100382417D01*
X110352125Y-100006986D02*
X110326698Y-100003932D01*
X100276684Y-100168217D02*
X100257097Y-100184715D01*
X110572113Y-109927306D02*
X110595049Y-109915914D01*
X110427573Y-100021325D02*
X110402592Y-100015687D01*
X110984313Y-109402592D02*
X110989095Y-109377433D01*
X100137273Y-109682510D02*
X100152396Y-109703177D01*
X100219670Y-100219670D02*
X100201873Y-100238085D01*
X110275606Y-100000437D02*
X110250000Y-100000000D01*
X110956696Y-100498840D02*
X110947709Y-100474859D01*
X110661339Y-100122863D02*
X110639688Y-100109185D01*
X100360312Y-100109185D02*
X100338661Y-100122863D01*
X110903745Y-100382417D02*
X110890815Y-100360312D01*
X110831783Y-109723316D02*
X110847604Y-109703177D01*
X110993014Y-100647875D02*
X110989095Y-100622567D01*
X110301182Y-100001748D02*
X110275606Y-100000437D01*
X110326698Y-109996068D02*
X110352125Y-109993014D01*
X100015687Y-109402592D02*
X100021325Y-109427573D01*
X100122863Y-100338661D02*
X100109185Y-100360312D01*
X110595049Y-109915914D02*
X110617583Y-109903745D01*
X110927306Y-109572113D02*
X110937908Y-109548801D01*
X110996068Y-100673302D02*
X110993014Y-100647875D01*
X100597408Y-109984313D02*
X100622567Y-109989095D01*
X100724394Y-100000437D02*
X100698818Y-100001748D01*
X110703177Y-100152396D02*
X110682510Y-100137273D01*
X110723316Y-100168217D02*
X110703177Y-100152396D01*
X100427887Y-100072694D02*
X100404951Y-100084086D01*
X100647875Y-109993014D02*
X100673302Y-109996068D01*
X110972188Y-100547652D02*
X110964859Y-100523114D01*
X100673302Y-109996068D02*
X100698818Y-109998252D01*
X110661339Y-109877137D02*
X110682510Y-109862727D01*
X110847604Y-109703177D02*
X110862727Y-109682510D01*
X110639688Y-100109185D02*
X110617583Y-100096255D01*
X100184715Y-100257097D02*
X100168217Y-100276684D01*
X100451199Y-109937908D02*
X100474859Y-109947709D01*
X100382417Y-100096255D02*
X100360312Y-100109185D01*
X100003932Y-100673302D02*
X100001748Y-100698818D01*
X100096255Y-100382417D02*
X100084086Y-100404951D01*
X100006986Y-100647875D02*
X100003932Y-100673302D01*
X110947709Y-109525141D02*
X110956696Y-109501160D01*
X100084086Y-109595049D02*
X100096255Y-109617583D01*
X100498840Y-109956696D02*
X100523114Y-109964859D01*
X110525141Y-100052291D02*
X110501160Y-100043304D01*
X100750000Y-100000000D02*
X100724394Y-100000437D01*
X100000437Y-109275606D02*
X100001748Y-109301182D01*
X100010905Y-100622567D02*
X100006986Y-100647875D01*
X100238085Y-100201873D02*
X100219670Y-100219670D01*
X110815285Y-109742903D02*
X110831783Y-109723316D01*
X110972188Y-109452348D02*
X110978675Y-109427573D01*
X110377433Y-100010905D02*
X110352125Y-100006986D01*
X110501160Y-109956696D02*
X110525141Y-109947709D01*
X100338661Y-109877137D02*
X100360312Y-109890815D01*
X110999563Y-109275606D02*
X111000000Y-109250000D01*
X110761915Y-109798127D02*
X110780330Y-109780330D01*
X100647875Y-100006986D02*
X100622567Y-100010905D01*
X110723316Y-109831783D02*
X110742903Y-109815285D01*
X110999563Y-100724394D02*
X110998252Y-100698818D01*
X100404951Y-109915914D02*
X100427887Y-109927306D01*
X110617583Y-100096255D02*
X110595049Y-100084086D01*
D11*
%TO.C,J2*%
X101550000Y-104700000D02*
X101450000Y-104700000D01*
X101450000Y-104040000D02*
X101550000Y-104040000D01*
X101120000Y-104370000D02*
G75*
G03*
X101450000Y-104700000I330000J0D01*
G01*
X101450000Y-104040000D02*
G75*
G03*
X101120000Y-104370000I0J-330000D01*
G01*
X101880000Y-104370000D02*
G75*
G03*
X101550000Y-104040000I-330000J0D01*
G01*
X101550000Y-104700000D02*
G75*
G03*
X101880000Y-104370000I0J330000D01*
G01*
%TD*%
M02*
