<?xml version="1.0" encoding="utf-8"?>
<!-- Generator: Adobe Illustrator 15.0.0, SVG Export Plug-In . SVG Version: 6.00 Build 0)  -->
<!DOCTYPE svg PUBLIC "-//W3C//DTD SVG 1.1//EN" "http://www.w3.org/Graphics/SVG/1.1/DTD/svg11.dtd">
<svg version="1.1" id="Layer_1" xmlns="http://www.w3.org/2000/svg" xmlns:xlink="http://www.w3.org/1999/xlink" x="0px" y="0px"
	 width="12px" height="10.5px" viewBox="390 300.75 12 10.5" enable-background="new 390 300.75 12 10.5" xml:space="preserve">
<path fill="#C8C8C8" d="M390.429,302.679h11.144c0.236,0,0.428-0.192,0.428-0.429v-1.071c0-0.237-0.191-0.429-0.428-0.429h-11.144
	c-0.237,0-0.429,0.192-0.429,0.429v1.071C390,302.487,390.192,302.679,390.429,302.679z M390.429,306.964h11.144
	c0.236,0,0.428-0.192,0.428-0.428v-1.072c0-0.236-0.191-0.428-0.428-0.428h-11.144c-0.237,0-0.429,0.192-0.429,0.428v1.072
	C390,306.771,390.192,306.964,390.429,306.964z M390.429,311.25h11.144c0.236,0,0.428-0.192,0.428-0.428v-1.072
	c0-0.236-0.191-0.428-0.428-0.428h-11.144c-0.237,0-0.429,0.191-0.429,0.428v1.072C390,311.059,390.192,311.25,390.429,311.25z"/>
</svg>
