<?xml version="1.0" encoding="utf-8"?>
<!-- Generator: Adobe Illustrator 15.0.0, SVG Export Plug-In . SVG Version: 6.00 Build 0)  -->
<!DOCTYPE svg PUBLIC "-//W3C//DTD SVG 1.1//EN" "http://www.w3.org/Graphics/SVG/1.1/DTD/svg11.dtd">
<svg version="1.1" id="Layer_1" xmlns="http://www.w3.org/2000/svg" xmlns:xlink="http://www.w3.org/1999/xlink" x="0px" y="0px"
	 width="21.6px" height="18.001px" viewBox="385.2 297.007 21.6 18.001" enable-background="new 385.2 297.007 21.6 18.001"
	 xml:space="preserve">
<path fill="#F7C839" d="M393.263,299.073l-3.334,3.334h-3.828c-0.497,0-0.9,0.403-0.9,0.9v5.401c0,0.495,0.404,0.897,0.9,0.897
	h3.828l3.334,3.335c0.564,0.566,1.539,0.169,1.539-0.636v-12.598C394.801,298.904,393.826,298.509,393.263,299.073z
	 M402.014,297.156c-0.419-0.274-0.983-0.158-1.257,0.262c-0.275,0.419-0.157,0.98,0.261,1.255c2.483,1.632,3.967,4.375,3.967,7.335
	c0,2.962-1.483,5.705-3.967,7.334c-0.418,0.272-0.536,0.84-0.261,1.259c0.265,0.399,0.821,0.544,1.257,0.257
	c2.999-1.966,4.786-5.274,4.786-8.851C406.8,302.433,405.013,299.125,402.014,297.156L402.014,297.156z M403.201,306.008
	c0-2.382-1.203-4.572-3.219-5.858c-0.419-0.268-0.978-0.144-1.241,0.279c-0.263,0.424-0.14,0.984,0.279,1.251
	c1.488,0.952,2.38,2.571,2.38,4.329c0,1.76-0.892,3.376-2.38,4.328c-0.419,0.269-0.542,0.828-0.279,1.251
	c0.244,0.388,0.793,0.569,1.241,0.28C401.998,310.579,403.201,308.39,403.201,306.008z M397.885,303.125
	c-0.437-0.236-0.985-0.081-1.223,0.355c-0.241,0.435-0.081,0.983,0.354,1.224c0.483,0.266,0.785,0.766,0.785,1.305
	s-0.302,1.041-0.784,1.304c-0.437,0.243-0.596,0.79-0.354,1.224c0.236,0.437,0.785,0.595,1.223,0.354
	c1.058-0.581,1.713-1.688,1.713-2.881C399.599,304.811,398.943,303.708,397.885,303.125L397.885,303.125z"/>
</svg>
